# xmcd CD database file
#
# Track frame offsets:
#	150
#	19818
#	41109
#	62212
#	86119
#	103972
#	127318
#	146421
#	162714
#	183082
#	199340
#	220303
#
# Disc length: 3305 seconds
#
# Revision: 2
# Processed by: cddbd v1.5PL3 Copyright (c) Steve Scherf et al.
# Submitted via: CDex 1.51
#
DISCID=c00ce70c
DTITLE=SMAP - SMAP 015／Drink！ Smap！
DYEAR=2002
DGENRE=JPop
TTITLE0=Theme of 015
TTITLE1=GO NOW!
TTITLE2=世界に一つだけの花
TTITLE3=時間よとまれ
TTITLE4=Over Flow
TTITLE5=ずっとずっと
TTITLE6=Jive
TTITLE7=People Song〜みんなのうた〜
TTITLE8=幸せの果てに
TTITLE9=It Can't Be
TTITLE10=freebird
TTITLE11=FIVE RESPECT
EXTD=YEAR: 2002
EXTT0=
EXTT1=
EXTT2=
EXTT3=
EXTT4=
EXTT5=
EXTT6=
EXTT7=
EXTT8=
EXTT9=
EXTT10=
EXTT11=
PLAYORDER=
